<svg width="274" height="98" viewBox="0 0 274 98" fill="none" xmlns="http://www.w3.org/2000/svg">
<path d="M89.2401 97.3332C83.3601 97.3332 78.28 96.1226 74.0429 93.6798C69.7843 91.237 66.5633 87.8647 64.3583 83.5628C62.1533 79.2609 61.0508 74.3537 61.0508 68.8412C61.0508 63.4369 62.1533 58.5945 64.3583 54.3142C66.5633 50.034 69.7843 46.6616 74.0429 44.1972C78.28 41.7112 83.3601 40.479 89.2401 40.479C95.1201 40.479 100.157 41.7112 104.351 44.1972C108.545 46.6616 111.744 50.034 113.949 54.3142C116.154 58.5945 117.256 63.4369 117.256 68.8412C117.256 74.3537 116.176 79.2609 113.992 83.5628C111.809 87.8647 108.609 91.237 104.394 93.6798C100.157 96.1226 95.1201 97.3332 89.2401 97.3332ZM89.1536 87.8215C95.0336 87.8215 99.4868 86.1785 102.535 82.9359C105.583 79.6716 107.096 75.0023 107.096 68.9061C107.096 65.3392 106.426 62.1182 105.064 59.2647C103.702 56.4111 101.67 54.1413 98.9464 52.4984C96.2442 50.8338 92.9799 50.0124 89.1536 50.0124C85.3705 50.0124 82.1279 50.8338 79.4257 52.4984C76.7235 54.1413 74.6698 56.4111 73.2863 59.2647C71.9028 62.1182 71.1894 65.3392 71.1894 68.9061C71.1894 74.959 72.7243 79.6068 75.8156 82.8927C78.8853 86.1785 83.3169 87.8215 89.1536 87.8215Z" fill="#645B58"/>
<path d="M268.895 49.9986L230.252 50.4309V63.8338L269.176 63.3799V72.8268L230.252 73.2807V86.662L269.327 86.2297V95.6766L220.178 96.1088V40.984L268.895 40.5518V49.9986Z" fill="#645B58"/>
<path d="M205.702 40.5522H195.623V96.1003H205.702V40.5522Z" fill="#645B58"/>
<path d="M139.245 40.5522H129.166V96.0947H139.245V40.5522Z" fill="#645B58"/>
<path d="M205.229 62.2066V52.1272L166.959 58.8591V68.9385L205.229 62.2066Z" fill="#645B58"/>
<path d="M50.0664 47.1815V37.1021L9.87238 44.1725V54.2519L50.0664 47.1815Z" fill="#645B58"/>
<path d="M167.434 55.9278V45.8484L129.164 52.5803V62.6597L167.434 55.9278Z" fill="#645B58"/>
<path d="M50.0665 44.1741H40.1934V96.0973H50.0665V44.1741Z" fill="#645B58"/>
<path d="M9.87318 0.0517578H0V96.0973H9.87318V0.0517578Z" fill="#645B58"/>
<path d="M205.264 19.4578H198.018V14.7799H204.641V11.1184H198.018V6.40888H205.264V2.75H194.199V23.1193H205.264V19.4578Z" fill="#645B58"/>
<path d="M233.07 19.4578L231.711 14.7799H237.78L236.717 11.1184H230.648L229.281 6.40888H236.528L235.465 2.75H224.4L230.314 23.1193H241.379L240.316 19.4578H233.07Z" fill="#645B58"/>
<path d="M225.501 23.1193L224.438 19.4578H217.609L212.907 2.75H209.088L215.002 23.1193H225.501Z" fill="#645B58"/>
<path d="M252.502 11.334C251.86 11.0859 251.22 10.8932 250.551 10.6741C249.408 10.315 247.903 9.79233 247.903 8.1952C247.903 7.09437 248.572 6.04897 250.104 6.04897C251.609 6.04897 252.25 7.14981 252.25 8.16881H256.181C256.041 5.35997 254.146 2.38745 250.216 2.38745C246.175 2.38745 244.084 5.49724 244.084 8.16881C244.084 9.76594 244.725 12.1603 247.847 13.4538C248.488 13.7284 249.185 13.9211 249.854 14.1429C251.08 14.5547 252.864 15.3255 252.864 17.3899C252.864 18.8498 251.749 19.9506 250.077 19.9506C248.627 19.9506 247.401 18.987 247.317 17.3899H243.332C243.36 21.5477 246.928 23.6121 249.994 23.6121C253.923 23.6121 256.682 20.7769 256.682 17.1708C256.682 13.1239 253.477 11.7195 252.502 11.334Z" fill="#645B58"/>
<path d="M159.741 13.4538C160.462 13.731 161.214 13.9211 161.948 14.1429C163.293 14.5547 165.301 15.3255 165.901 17.3899C166.324 18.8498 165.529 19.9506 163.857 19.9506C162.407 19.9506 160.901 18.987 160.354 17.3899H156.369C157.603 21.5477 161.771 23.6121 164.836 23.6121C168.765 23.6121 170.702 20.7769 169.655 17.1708C168.48 13.1239 164.868 11.7195 163.78 11.334C163.067 11.0859 162.37 10.8958 161.638 10.6741C160.391 10.315 158.734 9.79233 158.27 8.1952C157.95 7.09437 158.315 6.04897 159.849 6.04897C161.354 6.04897 162.314 7.14981 162.61 8.16881H166.54C165.586 5.35997 162.827 2.38745 158.897 2.38745C154.856 2.38745 153.668 5.49724 154.444 8.16881C154.908 9.76594 156.244 12.1603 159.741 13.4538Z" fill="#645B58"/>
<path d="M179.533 23.1193L177.055 14.5846H184.138L186.615 23.1193H190.434L184.52 2.75H180.701L183.075 10.9231H175.992L173.619 2.75H169.801L175.714 23.1193H179.533Z" fill="#645B58"/>
<path d="M261.16 2.75L260.098 6.41152H264.868L260.018 23.1193H263.836L268.687 6.41152H272.937L274 2.75H261.16Z" fill="#645B58"/>
</svg>
