<svg width="23" height="19" viewBox="0 0 23 19" fill="none" xmlns="http://www.w3.org/2000/svg">
<path d="M13.7553 0.273972L22.1726 8.69128C22.2595 8.77814 22.3285 8.88129 22.3756 8.99483C22.4227 9.10836 22.4469 9.23007 22.4469 9.35297C22.4469 9.47588 22.4227 9.59758 22.3756 9.71112C22.3285 9.82466 22.2595 9.92781 22.1726 10.0147L13.7553 18.432C13.5798 18.6075 13.3418 18.7061 13.0936 18.7061C12.8454 18.7061 12.6074 18.6075 12.4319 18.432C12.2564 18.2565 12.1578 18.0185 12.1578 17.7703C12.1578 17.5221 12.2564 17.2841 12.4319 17.1086L19.2534 10.2882L0.935256 10.2882C0.687211 10.2882 0.449325 10.1897 0.273931 10.0143C0.0985359 9.8389 1.08576e-07 9.60102 1.11534e-07 9.35297C1.14492e-07 9.10493 0.0985359 8.86704 0.273931 8.69165C0.449325 8.51625 0.687211 8.41772 0.935256 8.41772L19.2534 8.41772L12.4319 1.59736C12.2564 1.42187 12.1578 1.18385 12.1578 0.935667C12.1578 0.687483 12.2564 0.449465 12.4319 0.273972C12.6074 0.0984804 12.8454 -0.000110473 13.0936 -0.00011047C13.3418 -0.000110467 13.5798 0.0984804 13.7553 0.273972Z" fill="#645B58"/>
</svg>
