<svg width="23" height="19" viewBox="0 0 23 19" fill="none" xmlns="http://www.w3.org/2000/svg">
<path d="M8.69198 18.4321L0.274677 10.0148C0.187721 9.92791 0.118736 9.82477 0.0716701 9.71123C0.0246044 9.59769 0.000381056 9.47599 0.000381061 9.35308C0.000381066 9.23017 0.0246044 9.10847 0.0716701 8.99493C0.118736 8.8814 0.187721 8.77825 0.274677 8.69139L8.69198 0.274082C8.86748 0.0985898 9.10549 -5.83187e-07 9.35368 -5.72339e-07C9.60186 -5.6149e-07 9.83988 0.0985898 10.0154 0.274082C10.1909 0.449574 10.2895 0.687592 10.2895 0.935776C10.2895 1.18396 10.1909 1.42198 10.0154 1.59747L3.19385 8.41782L21.512 8.41783C21.7601 8.41783 21.9979 8.51636 22.1733 8.69176C22.3487 8.86715 22.4473 9.10504 22.4473 9.35308C22.4473 9.60113 22.3487 9.83901 22.1733 10.0144C21.9979 10.1898 21.7601 10.2883 21.512 10.2883L3.19385 10.2883L10.0154 17.1087C10.1909 17.2842 10.2895 17.5222 10.2895 17.7704C10.2895 18.0186 10.1909 18.2566 10.0154 18.4321C9.83988 18.6076 9.60186 18.7062 9.35368 18.7062C9.10549 18.7062 8.86748 18.6076 8.69198 18.4321Z" fill="#645B58"/>
</svg>
