<svg width="541" height="193" viewBox="0 0 541 193" fill="none" xmlns="http://www.w3.org/2000/svg">
<path d="M176.203 192.076C164.594 192.076 154.563 189.686 146.197 184.863C137.789 180.04 131.429 173.381 127.075 164.887C122.722 156.393 120.545 146.704 120.545 135.82C120.545 125.149 122.722 115.589 127.075 107.137C131.429 98.6861 137.789 92.0276 146.197 87.1618C154.563 82.2532 164.594 79.8203 176.203 79.8203C187.813 79.8203 197.758 82.2532 206.039 87.1618C214.319 92.0276 220.636 98.6861 224.99 107.137C229.343 115.589 231.52 125.149 231.52 135.82C231.52 146.704 229.386 156.393 225.075 164.887C220.764 173.381 214.447 180.04 206.124 184.863C197.758 189.686 187.813 192.076 176.203 192.076ZM176.033 173.296C187.642 173.296 196.435 170.052 202.453 163.649C208.472 157.204 211.459 147.985 211.459 135.948C211.459 128.906 210.136 122.546 207.447 116.912C204.758 111.278 200.746 106.796 195.368 103.552C190.033 100.265 183.587 98.6434 176.033 98.6434C168.563 98.6434 162.161 100.265 156.825 103.552C151.49 106.796 147.435 111.278 144.703 116.912C141.972 122.546 140.563 128.906 140.563 135.948C140.563 147.899 143.594 157.076 149.697 163.564C155.758 170.052 164.508 173.296 176.033 173.296Z" fill="#DCD0B9"/>
<path d="M530.92 98.6182L454.621 99.4717V125.935L531.475 125.039V143.691L454.621 144.587V171.008L531.773 170.155V188.807L434.73 189.661V80.8193L530.92 79.9658V98.6182Z" fill="#DCD0B9"/>
<path d="M406.157 79.9658H386.256V189.643H406.157V79.9658Z" fill="#DCD0B9"/>
<path d="M274.938 79.9658H255.037V189.632H274.938V79.9658Z" fill="#DCD0B9"/>
<path d="M405.221 122.723V102.821L329.66 116.113V136.014L405.221 122.723Z" fill="#DCD0B9"/>
<path d="M98.8496 93.0566V73.1553L19.4885 87.1155V107.017L98.8496 93.0566Z" fill="#DCD0B9"/>
<path d="M330.598 110.323V90.4219L255.037 103.714V123.615L330.598 110.323Z" fill="#DCD0B9"/>
<path d="M98.8496 87.1172H79.3555V189.637H98.8496V87.1172Z" fill="#DCD0B9"/>
<path d="M19.4941 0H0V189.637H19.4941V0Z" fill="#DCD0B9"/>
<path d="M405.28 39.7437H390.973V30.5074H404.05V23.2779H390.973V13.9792H405.28V6.75488H383.434V46.9732H405.28V39.7437Z" fill="#DCD0B9"/>
<path d="M460.185 39.7437L457.502 30.5074H469.486L467.387 23.2779H455.405L452.705 13.9792H467.014L464.915 6.75488H443.068L454.745 46.9732H476.592L474.493 39.7437H460.185Z" fill="#DCD0B9"/>
<path d="M445.238 46.9732L443.138 39.7437H429.654L420.37 6.75488H412.83L424.507 46.9732H445.238Z" fill="#DCD0B9"/>
<path d="M498.548 23.7027C497.282 23.2127 496.017 22.8322 494.696 22.3996C492.44 21.6907 489.469 20.6587 489.469 17.5052C489.469 15.3317 490.789 13.2676 493.815 13.2676C496.787 13.2676 498.052 15.4411 498.052 17.4531H505.812C505.537 11.9072 501.795 6.03809 494.035 6.03809C486.056 6.03809 481.929 12.1782 481.929 17.4531C481.929 20.6066 483.194 25.3341 489.358 27.8881C490.623 28.4302 492 28.8108 493.321 29.2486C495.741 30.0617 499.264 31.5837 499.264 35.6597C499.264 38.5421 497.062 40.7157 493.761 40.7157C490.898 40.7157 488.478 38.8132 488.312 35.6597H480.443C480.499 43.8691 487.542 47.9452 493.596 47.9452C501.355 47.9452 506.802 42.3472 506.802 35.2271C506.802 27.2366 500.474 24.4637 498.548 23.7027Z" fill="#DCD0B9"/>
<path d="M315.397 27.8881C316.821 28.4354 318.307 28.8108 319.755 29.2486C322.411 30.0617 326.375 31.5837 327.559 35.6597C328.396 38.5421 326.826 40.7157 323.524 40.7157C320.661 40.7157 317.688 38.8132 316.608 35.6597H308.739C311.176 43.8691 319.405 47.9452 325.457 47.9452C333.216 47.9452 337.04 42.3472 334.972 35.2271C332.652 27.2366 325.52 24.4637 323.373 23.7027C321.964 23.2127 320.589 22.8374 319.143 22.3996C316.681 21.6907 313.409 20.6587 312.494 17.5052C311.862 15.3317 312.583 13.2676 315.61 13.2676C318.582 13.2676 320.478 15.4411 321.062 17.4531H328.821C326.938 11.9072 321.491 6.03809 313.732 6.03809C305.752 6.03809 303.407 12.1782 304.94 17.4531C305.855 20.6066 308.493 25.3341 315.397 27.8881Z" fill="#DCD0B9"/>
<path d="M354.483 46.9732L349.591 30.1217H363.575L368.467 46.9732H376.006L364.329 6.75488H356.79L361.476 22.8922H347.492L342.806 6.75488H335.268L346.943 46.9732H354.483Z" fill="#DCD0B9"/>
<path d="M515.649 6.75488L513.551 13.9844H522.97L513.393 46.9732H520.932L530.51 13.9844H538.902L541.001 6.75488H515.649Z" fill="#DCD0B9"/>
</svg>
