<svg width="105" height="37" viewBox="0 0 105 37" fill="none" xmlns="http://www.w3.org/2000/svg">
<path d="M33.9421 37C31.7057 37 29.7736 36.5395 28.162 35.6104C26.5423 34.6814 25.3172 33.3987 24.4786 31.7625C23.6399 30.1263 23.2206 28.2599 23.2206 26.1633C23.2206 24.1078 23.6399 22.2661 24.4786 20.6381C25.3172 19.0101 26.5423 17.7275 28.162 16.7902C29.7736 15.8446 31.7057 15.376 33.9421 15.376C36.1785 15.376 38.0943 15.8446 39.6894 16.7902C41.2844 17.7275 42.5013 19.0101 43.3399 20.6381C44.1786 22.2661 44.5979 24.1078 44.5979 26.1633C44.5979 28.2599 44.1868 30.1263 43.3564 31.7625C42.526 33.3987 41.3091 34.6814 39.7058 35.6104C38.0943 36.5395 36.1785 37 33.9421 37ZM33.9092 33.3823C36.1456 33.3823 37.8394 32.7574 38.9987 31.5241C40.158 30.2826 40.7336 28.5066 40.7336 26.188C40.7336 24.8313 40.4787 23.6062 39.9607 22.5209C39.4427 21.4356 38.6698 20.5723 37.6338 19.9474C36.6061 19.3143 35.3646 19.0019 33.9092 19.0019C32.4704 19.0019 31.2371 19.3143 30.2093 19.9474C29.1816 20.5723 28.4005 21.4356 27.8743 22.5209C27.3481 23.6062 27.0767 24.8313 27.0767 26.188C27.0767 28.4901 27.6605 30.2579 28.8362 31.5076C30.0038 32.7574 31.6893 33.3823 33.9092 33.3823Z" fill="#40577D"/>
<path d="M102.272 18.9971L87.5742 19.1615V24.2592L102.379 24.0865V27.6796L87.5742 27.8522V32.9417L102.436 32.7773V36.3703L83.7427 36.5347V15.5685L102.272 15.4041V18.9971Z" fill="#40577D"/>
<path d="M78.2388 15.4041H74.4052V36.5313H78.2388V15.4041Z" fill="#40577D"/>
<path d="M52.9618 15.4041H49.1282V36.5292H52.9618V15.4041Z" fill="#40577D"/>
<path d="M78.0582 23.6403V19.8066L63.5028 22.3671V26.2007L78.0582 23.6403Z" fill="#40577D"/>
<path d="M19.0415 17.9257V14.092L3.75406 16.7812V20.6148L19.0415 17.9257Z" fill="#40577D"/>
<path d="M63.6836 21.2518V17.4182L49.1282 19.9786V23.8122L63.6836 21.2518Z" fill="#40577D"/>
<path d="M19.0416 16.7817H15.2864V36.5303H19.0416V16.7817Z" fill="#40577D"/>
<path d="M3.75518 0H0V36.5301H3.75518V0Z" fill="#40577D"/>
<path d="M78.0697 7.65594H75.3136V5.87675H77.8326V4.48413H75.3136V2.69289H78.0697V1.30127H73.8613V9.04857H78.0697V7.65594Z" fill="#40577D"/>
<path d="M88.6461 7.65594L88.1293 5.87675H90.4377L90.0334 4.48413H87.7253L87.2052 2.69289H89.9616L89.5572 1.30127H85.3489L87.5982 9.04857H91.8066L91.4022 7.65594H88.6461Z" fill="#40577D"/>
<path d="M85.7668 9.04857L85.3623 7.65594H82.7648L80.9764 1.30127H79.524L81.7734 9.04857H85.7668Z" fill="#40577D"/>
<path d="M96.0361 4.56584C95.7922 4.47146 95.5485 4.39816 95.2941 4.31482C94.8595 4.17827 94.2871 3.97947 94.2871 3.37201C94.2871 2.95332 94.5416 2.55571 95.1244 2.55571C95.6968 2.55571 95.9405 2.97441 95.9405 3.36197H97.4355C97.3824 2.29366 96.6616 1.16309 95.1667 1.16309C93.6298 1.16309 92.8347 2.34587 92.8347 3.36197C92.8347 3.96943 93.0784 4.8801 94.2658 5.37209C94.5094 5.47651 94.7747 5.54982 95.0292 5.63416C95.4955 5.79079 96.174 6.08397 96.174 6.86914C96.174 7.42439 95.7499 7.84308 95.114 7.84308C94.5625 7.84308 94.0962 7.4766 94.0644 6.86914H92.5486C92.5594 8.45053 93.9161 9.23571 95.0822 9.23571C96.5768 9.23571 97.6261 8.15735 97.6261 6.78581C97.6261 5.24659 96.4072 4.71243 96.0361 4.56584Z" fill="#40577D"/>
<path d="M60.7555 5.37209C61.0296 5.47751 61.3159 5.54982 61.5948 5.63416C62.1065 5.79079 62.8701 6.08397 63.0982 6.86914C63.2593 7.42439 62.9569 7.84308 62.3209 7.84308C61.7694 7.84308 61.1967 7.4766 60.9886 6.86914H59.4728C59.9422 8.45053 61.5274 9.23571 62.6932 9.23571C64.1878 9.23571 64.9245 8.15735 64.5261 6.78581C64.0791 5.24659 62.7053 4.71243 62.2917 4.56584C62.0204 4.47146 61.7555 4.39917 61.4769 4.31482C61.0027 4.17827 60.3723 3.97947 60.1961 3.37201C60.0744 2.95332 60.2132 2.55571 60.7964 2.55571C61.3689 2.55571 61.7342 2.97441 61.8467 3.36197H63.3413C62.9785 2.29366 61.9292 1.16309 60.4346 1.16309C58.8975 1.16309 58.4457 2.34587 58.7409 3.36197C58.9172 3.96943 59.4255 4.8801 60.7555 5.37209Z" fill="#40577D"/>
<path d="M68.2846 9.04857L67.3424 5.80245H70.0361L70.9783 9.04857H72.4306L70.1813 1.30127H68.729L69.6317 4.40983H66.938L66.0352 1.30127H64.5831L66.8322 9.04857H68.2846Z" fill="#40577D"/>
<path d="M99.3301 1.30127L98.926 2.6939H100.74L98.8955 9.04857H100.348L102.193 2.6939H103.809L104.214 1.30127H99.3301Z" fill="#40577D"/>
</svg>
